<svg width="32" height="32" viewBox="0 0 32 32" fill="none" xmlns="http://www.w3.org/2000/svg">
<g clip-path="url(#clip0_53_1027)">
<rect x="0.000976562" y="16.001" width="22.9854" height="22.278" rx="3" transform="rotate(-45 0.000976562 16.001)" fill="#FFCD56"/>
<path d="M12.5004 10.4001C12.5004 9.9576 12.1429 9.6001 11.7004 9.6001C11.2579 9.6001 10.9004 9.9576 10.9004 10.4001V21.6001C10.9004 22.0426 11.2579 22.4001 11.7004 22.4001C12.1429 22.4001 12.5004 22.0426 12.5004 21.6001V18.5601L14.0679 18.0901C15.1154 17.7751 16.2454 17.8726 17.2229 18.3626C18.2904 18.8976 19.5354 18.9626 20.6529 18.5426L21.5804 18.1951C21.8929 18.0776 22.1004 17.7801 22.1004 17.4451V11.2526C22.1004 10.6776 21.4954 10.3026 20.9804 10.5601L20.6854 10.7076C19.5629 11.2701 18.2404 11.2701 17.1154 10.7076C16.2054 10.2526 15.1579 10.1626 14.1854 10.4551L12.5004 10.9601V10.4001Z" fill="black"/>
</g>
<defs>
<clipPath id="clip0_53_1027">
<rect width="32" height="32" fill="white"/>
</clipPath>
</defs>
</svg>
