<svg width="32" height="32" viewBox="0 0 32 32" fill="none" xmlns="http://www.w3.org/2000/svg">
<g clip-path="url(#clip0_53_1024)">
<rect x="0.000976562" y="16.001" width="22.9854" height="22.278" rx="3" transform="rotate(-45 0.000976562 16.001)" fill="#F24769"/>
<path d="M20.4998 20.8207C22.1451 19.5832 23.1998 17.6819 23.1998 15.55C23.1998 11.8235 19.9767 8.80005 15.9998 8.80005C12.0229 8.80005 8.7998 11.8235 8.7998 15.55C8.7998 17.6819 9.85449 19.5832 11.4998 20.8207V21.85C11.4998 22.5954 12.1045 23.2 12.8498 23.2H13.7498V22.075C13.7498 21.701 14.0507 21.4 14.4248 21.4C14.7989 21.4 15.0998 21.701 15.0998 22.075V23.2H16.8998V22.075C16.8998 21.701 17.2007 21.4 17.5748 21.4C17.9489 21.4 18.2498 21.701 18.2498 22.075V23.2H19.1498C19.8951 23.2 20.4998 22.5954 20.4998 21.85V20.8207ZM11.4998 16C11.4998 15.0072 12.307 14.2 13.2998 14.2C14.2926 14.2 15.0998 15.0072 15.0998 16C15.0998 16.9929 14.2926 17.8 13.2998 17.8C12.307 17.8 11.4998 16.9929 11.4998 16ZM18.6998 14.2C19.6926 14.2 20.4998 15.0072 20.4998 16C20.4998 16.9929 19.6926 17.8 18.6998 17.8C17.707 17.8 16.8998 16.9929 16.8998 16C16.8998 15.0072 17.707 14.2 18.6998 14.2Z" fill="black"/>
</g>
<defs>
<clipPath id="clip0_53_1024">
<rect width="32" height="32" fill="white"/>
</clipPath>
</defs>
</svg>
